<mxfile host="app.diagrams.net" modified="2024-03-11T06:32:09.441Z" agent="Mozilla/5.0 (Windows NT 10.0; Win64; x64) AppleWebKit/537.36 (KHTML, like Gecko) Chrome/122.0.0.0 Safari/537.36" etag="Aw4rS-ZM89SRa1bU4Pah" version="24.0.4" type="github">
  <diagram name="Page-1" id="P_324fa_6yjke-Muh9tB">
    <mxGraphModel dx="658" dy="426" grid="1" gridSize="10" guides="1" tooltips="1" connect="1" arrows="1" fold="1" page="1" pageScale="1" pageWidth="850" pageHeight="1100" math="0" shadow="0">
      <root>
        <mxCell id="0" />
        <mxCell id="1" parent="0" />
        <mxCell id="LlWjDGCFj3o7en6xaWXe-3" value="main.py" style="rounded=1;whiteSpace=wrap;html=1;" parent="1" vertex="1">
          <mxGeometry x="120" y="360" width="120" height="60" as="geometry" />
        </mxCell>
        <mxCell id="LlWjDGCFj3o7en6xaWXe-5" value="models.py" style="rounded=0;whiteSpace=wrap;html=1;" parent="1" vertex="1">
          <mxGeometry x="630" y="300" width="200" height="130" as="geometry" />
        </mxCell>
        <mxCell id="LlWjDGCFj3o7en6xaWXe-6" value="preprocess.py" style="rounded=1;whiteSpace=wrap;html=1;" parent="1" vertex="1">
          <mxGeometry x="300" y="520" width="80" height="40" as="geometry" />
        </mxCell>
        <mxCell id="LlWjDGCFj3o7en6xaWXe-7" value="train.py" style="rounded=1;whiteSpace=wrap;html=1;" parent="1" vertex="1">
          <mxGeometry x="250" y="380" width="60" height="20" as="geometry" />
        </mxCell>
        <mxCell id="LlWjDGCFj3o7en6xaWXe-9" value="" style="endArrow=blockThin;html=1;rounded=0;exitX=0.5;exitY=1;exitDx=0;exitDy=0;entryX=0;entryY=0.5;entryDx=0;entryDy=0;endFill=1;edgeStyle=elbowEdgeStyle;" parent="1" source="LlWjDGCFj3o7en6xaWXe-3" target="LlWjDGCFj3o7en6xaWXe-6" edge="1">
          <mxGeometry width="50" height="50" relative="1" as="geometry">
            <mxPoint x="220" y="460" as="sourcePoint" />
            <mxPoint x="270" y="410" as="targetPoint" />
            <Array as="points">
              <mxPoint x="180" y="480" />
            </Array>
          </mxGeometry>
        </mxCell>
        <mxCell id="LlWjDGCFj3o7en6xaWXe-10" value="&lt;div&gt;Raw Data Categorization&lt;/div&gt;&lt;div&gt;Train/Valid/Test&lt;br&gt;&lt;/div&gt;" style="edgeLabel;html=1;align=center;verticalAlign=middle;resizable=0;points=[];" parent="LlWjDGCFj3o7en6xaWXe-9" vertex="1" connectable="0">
          <mxGeometry x="0.0388" relative="1" as="geometry">
            <mxPoint as="offset" />
          </mxGeometry>
        </mxCell>
        <mxCell id="LlWjDGCFj3o7en6xaWXe-11" value="" style="endArrow=blockThin;html=1;rounded=0;entryX=0;entryY=1;entryDx=0;entryDy=0;exitX=0.5;exitY=0;exitDx=0;exitDy=0;endFill=1;" parent="1" source="LlWjDGCFj3o7en6xaWXe-3" target="LlWjDGCFj3o7en6xaWXe-8" edge="1">
          <mxGeometry width="50" height="50" relative="1" as="geometry">
            <mxPoint x="170" y="300" as="sourcePoint" />
            <mxPoint x="230" y="310" as="targetPoint" />
          </mxGeometry>
        </mxCell>
        <mxCell id="LlWjDGCFj3o7en6xaWXe-12" value="Vocab Load" style="edgeLabel;html=1;align=center;verticalAlign=middle;resizable=0;points=[];" parent="LlWjDGCFj3o7en6xaWXe-11" vertex="1" connectable="0">
          <mxGeometry x="-0.0017" y="-3" relative="1" as="geometry">
            <mxPoint as="offset" />
          </mxGeometry>
        </mxCell>
        <mxCell id="LlWjDGCFj3o7en6xaWXe-13" value="" style="endArrow=blockThin;html=1;rounded=0;exitX=0.5;exitY=0;exitDx=0;exitDy=0;entryX=0.5;entryY=1;entryDx=0;entryDy=0;entryPerimeter=0;endFill=1;" parent="1" source="LlWjDGCFj3o7en6xaWXe-6" target="LlWjDGCFj3o7en6xaWXe-15" edge="1">
          <mxGeometry width="50" height="50" relative="1" as="geometry">
            <mxPoint x="400" y="500" as="sourcePoint" />
            <mxPoint x="360" y="500" as="targetPoint" />
          </mxGeometry>
        </mxCell>
        <mxCell id="LlWjDGCFj3o7en6xaWXe-15" value="&lt;div style=&quot;font-size: 10px;&quot;&gt;&lt;font style=&quot;font-size: 10px;&quot;&gt;Train/Valid/Test&lt;br style=&quot;font-size: 10px;&quot;&gt;&lt;/font&gt;&lt;/div&gt;&lt;div style=&quot;font-size: 10px;&quot;&gt;&lt;font style=&quot;font-size: 10px;&quot;&gt;SMILES&lt;/font&gt;&lt;/div&gt;" style="shape=note;whiteSpace=wrap;html=1;backgroundOutline=1;darkOpacity=0.05;size=9;fontSize=10;" parent="1" vertex="1">
          <mxGeometry x="300" y="470" width="80" height="40" as="geometry" />
        </mxCell>
        <mxCell id="LlWjDGCFj3o7en6xaWXe-23" style="rounded=0;orthogonalLoop=1;jettySize=auto;html=1;exitX=0.5;exitY=0;exitDx=0;exitDy=0;exitPerimeter=0;entryX=0.25;entryY=1;entryDx=0;entryDy=0;endArrow=blockThin;endFill=1;" parent="1" source="LlWjDGCFj3o7en6xaWXe-15" target="LlWjDGCFj3o7en6xaWXe-27" edge="1">
          <mxGeometry relative="1" as="geometry" />
        </mxCell>
        <mxCell id="F4dPGGiIWAzUhIJDrd0Z-24" value="SMILES" style="edgeLabel;html=1;align=center;verticalAlign=middle;resizable=0;points=[];" vertex="1" connectable="0" parent="LlWjDGCFj3o7en6xaWXe-23">
          <mxGeometry x="0.0793" y="1" relative="1" as="geometry">
            <mxPoint as="offset" />
          </mxGeometry>
        </mxCell>
        <mxCell id="J6uo8NXID0gWZEXgctfa-1" style="rounded=0;orthogonalLoop=1;jettySize=auto;html=1;endArrow=blockThin;endFill=1;startArrow=none;startFill=0;exitX=0;exitY=0.5;exitDx=0;exitDy=0;edgeStyle=elbowEdgeStyle;elbow=vertical;" parent="1" edge="1">
          <mxGeometry relative="1" as="geometry">
            <mxPoint x="360" y="320" as="sourcePoint" />
            <mxPoint x="280" y="240" as="targetPoint" />
            <Array as="points">
              <mxPoint x="310" y="320" />
            </Array>
          </mxGeometry>
        </mxCell>
        <mxCell id="F4dPGGiIWAzUhIJDrd0Z-39" value="Chem.Mol" style="edgeLabel;html=1;align=center;verticalAlign=middle;resizable=0;points=[];" vertex="1" connectable="0" parent="J6uo8NXID0gWZEXgctfa-1">
          <mxGeometry x="-0.6234" relative="1" as="geometry">
            <mxPoint x="-46" as="offset" />
          </mxGeometry>
        </mxCell>
        <mxCell id="F4dPGGiIWAzUhIJDrd0Z-12" value="&lt;div style=&quot;font-size: 10px;&quot;&gt;Tokenized Data&lt;/div&gt;" style="shape=note;whiteSpace=wrap;html=1;backgroundOutline=1;darkOpacity=0.05;size=9;fontSize=10;" vertex="1" parent="1">
          <mxGeometry x="420" y="470" width="80" height="40" as="geometry" />
        </mxCell>
        <mxCell id="F4dPGGiIWAzUhIJDrd0Z-18" value="" style="group" vertex="1" connectable="0" parent="1">
          <mxGeometry x="360" y="300" width="200" height="130" as="geometry" />
        </mxCell>
        <mxCell id="LlWjDGCFj3o7en6xaWXe-4" value="data.py&lt;div&gt;Dataset&lt;/div&gt;" style="rounded=0;whiteSpace=wrap;html=1;horizontal=1;verticalAlign=top;glass=0;shadow=0;textShadow=0;align=right;" parent="F4dPGGiIWAzUhIJDrd0Z-18" vertex="1">
          <mxGeometry width="200" height="130" as="geometry" />
        </mxCell>
        <mxCell id="F4dPGGiIWAzUhIJDrd0Z-16" style="rounded=0;orthogonalLoop=1;jettySize=auto;html=1;exitX=1;exitY=0.5;exitDx=0;exitDy=0;entryX=0;entryY=0.5;entryDx=0;entryDy=0;endArrow=blockThin;endFill=1;strokeWidth=0.5;" edge="1" parent="F4dPGGiIWAzUhIJDrd0Z-18" source="LlWjDGCFj3o7en6xaWXe-27" target="F4dPGGiIWAzUhIJDrd0Z-15">
          <mxGeometry relative="1" as="geometry" />
        </mxCell>
        <mxCell id="LlWjDGCFj3o7en6xaWXe-27" value="tokenize_mp" style="rounded=0;whiteSpace=wrap;html=1;" parent="F4dPGGiIWAzUhIJDrd0Z-18" vertex="1">
          <mxGeometry y="90" width="80" height="40" as="geometry" />
        </mxCell>
        <mxCell id="J6uo8NXID0gWZEXgctfa-9" value="" style="endArrow=blockThin;html=1;rounded=0;exitX=0.25;exitY=0;exitDx=0;exitDy=0;entryX=0.25;entryY=1;entryDx=0;entryDy=0;endFill=1;strokeWidth=0.5;" parent="F4dPGGiIWAzUhIJDrd0Z-18" source="LlWjDGCFj3o7en6xaWXe-27" edge="1">
          <mxGeometry width="50" height="50" relative="1" as="geometry">
            <mxPoint x="30" y="80" as="sourcePoint" />
            <mxPoint x="20" y="40" as="targetPoint" />
          </mxGeometry>
        </mxCell>
        <mxCell id="F4dPGGiIWAzUhIJDrd0Z-25" value="SMILES" style="edgeLabel;html=1;align=center;verticalAlign=middle;resizable=0;points=[];" vertex="1" connectable="0" parent="J6uo8NXID0gWZEXgctfa-9">
          <mxGeometry x="0.0124" relative="1" as="geometry">
            <mxPoint as="offset" />
          </mxGeometry>
        </mxCell>
        <mxCell id="J6uo8NXID0gWZEXgctfa-11" value="" style="endArrow=blockThin;html=1;rounded=0;exitX=0.75;exitY=1;exitDx=0;exitDy=0;entryX=0.75;entryY=0;entryDx=0;entryDy=0;endFill=1;strokeWidth=0.5;" parent="F4dPGGiIWAzUhIJDrd0Z-18" target="LlWjDGCFj3o7en6xaWXe-27" edge="1">
          <mxGeometry width="50" height="50" relative="1" as="geometry">
            <mxPoint x="60" y="40" as="sourcePoint" />
            <mxPoint x="60" y="90" as="targetPoint" />
          </mxGeometry>
        </mxCell>
        <mxCell id="F4dPGGiIWAzUhIJDrd0Z-35" value="Vocab&lt;div&gt;Index&lt;/div&gt;" style="edgeLabel;html=1;align=center;verticalAlign=middle;resizable=0;points=[];" vertex="1" connectable="0" parent="J6uo8NXID0gWZEXgctfa-11">
          <mxGeometry y="-1" relative="1" as="geometry">
            <mxPoint as="offset" />
          </mxGeometry>
        </mxCell>
        <mxCell id="F4dPGGiIWAzUhIJDrd0Z-15" value="collate_fn" style="rounded=0;whiteSpace=wrap;html=1;" vertex="1" parent="F4dPGGiIWAzUhIJDrd0Z-18">
          <mxGeometry x="120" y="90" width="80" height="40" as="geometry" />
        </mxCell>
        <mxCell id="F4dPGGiIWAzUhIJDrd0Z-36" value="" style="rounded=0;whiteSpace=wrap;html=1;" vertex="1" parent="F4dPGGiIWAzUhIJDrd0Z-18">
          <mxGeometry width="80" height="40" as="geometry" />
        </mxCell>
        <mxCell id="F4dPGGiIWAzUhIJDrd0Z-37" value="Workers" style="rounded=0;whiteSpace=wrap;html=1;strokeWidth=0.5;" vertex="1" parent="F4dPGGiIWAzUhIJDrd0Z-18">
          <mxGeometry x="25" width="30" height="40" as="geometry" />
        </mxCell>
        <mxCell id="F4dPGGiIWAzUhIJDrd0Z-14" style="rounded=0;orthogonalLoop=1;jettySize=auto;html=1;entryX=0.5;entryY=0;entryDx=0;entryDy=0;entryPerimeter=0;startArrow=blockThin;startFill=1;endArrow=blockThin;endFill=1;" edge="1" parent="1" target="F4dPGGiIWAzUhIJDrd0Z-12">
          <mxGeometry relative="1" as="geometry">
            <mxPoint x="460" y="410" as="sourcePoint" />
          </mxGeometry>
        </mxCell>
        <mxCell id="F4dPGGiIWAzUhIJDrd0Z-21" value="&lt;div style=&quot;font-size: 10px;&quot;&gt;Generated&lt;/div&gt;&lt;div style=&quot;font-size: 10px;&quot;&gt;Vocab&lt;/div&gt;" style="shape=note;whiteSpace=wrap;html=1;backgroundOutline=1;darkOpacity=0.05;size=9;fontSize=10;" vertex="1" parent="1">
          <mxGeometry x="450" y="140" width="80" height="40" as="geometry" />
        </mxCell>
        <mxCell id="F4dPGGiIWAzUhIJDrd0Z-22" style="edgeStyle=orthogonalEdgeStyle;rounded=0;orthogonalLoop=1;jettySize=auto;html=1;exitX=0.75;exitY=1;exitDx=0;exitDy=0;entryX=0;entryY=0.5;entryDx=0;entryDy=0;entryPerimeter=0;" edge="1" parent="1" source="LlWjDGCFj3o7en6xaWXe-3" target="LlWjDGCFj3o7en6xaWXe-15">
          <mxGeometry relative="1" as="geometry" />
        </mxCell>
        <mxCell id="F4dPGGiIWAzUhIJDrd0Z-23" value="Raw Data Load" style="edgeLabel;html=1;align=center;verticalAlign=middle;resizable=0;points=[];" vertex="1" connectable="0" parent="F4dPGGiIWAzUhIJDrd0Z-22">
          <mxGeometry x="0.206" relative="1" as="geometry">
            <mxPoint as="offset" />
          </mxGeometry>
        </mxCell>
        <mxCell id="F4dPGGiIWAzUhIJDrd0Z-46" value="" style="group" vertex="1" connectable="0" parent="1">
          <mxGeometry x="200" y="80" width="210" height="160" as="geometry" />
        </mxCell>
        <mxCell id="LlWjDGCFj3o7en6xaWXe-8" value="vocab.py&lt;div&gt;Vocab&lt;/div&gt;" style="rounded=0;whiteSpace=wrap;html=1;align=right;verticalAlign=top;" parent="F4dPGGiIWAzUhIJDrd0Z-46" vertex="1">
          <mxGeometry width="210" height="160" as="geometry" />
        </mxCell>
        <mxCell id="F4dPGGiIWAzUhIJDrd0Z-41" value="Tokenizer" style="rounded=0;whiteSpace=wrap;html=1;" vertex="1" parent="F4dPGGiIWAzUhIJDrd0Z-46">
          <mxGeometry x="20" y="50.666666666666664" width="100" height="58.666666666666664" as="geometry" />
        </mxCell>
        <mxCell id="F4dPGGiIWAzUhIJDrd0Z-43" value="Index tokens by vocab" style="rounded=0;whiteSpace=wrap;html=1;" vertex="1" parent="F4dPGGiIWAzUhIJDrd0Z-46">
          <mxGeometry x="120" y="128" width="90" height="32" as="geometry" />
        </mxCell>
        <mxCell id="F4dPGGiIWAzUhIJDrd0Z-45" value="" style="endArrow=classic;html=1;rounded=0;entryX=0;entryY=0;entryDx=0;entryDy=0;entryPerimeter=0;strokeWidth=0.5;" edge="1" parent="F4dPGGiIWAzUhIJDrd0Z-46">
          <mxGeometry width="50" height="50" relative="1" as="geometry">
            <mxPoint y="60" as="sourcePoint" />
            <mxPoint x="250" y="60" as="targetPoint" />
          </mxGeometry>
        </mxCell>
        <mxCell id="F4dPGGiIWAzUhIJDrd0Z-55" value="Tokens" style="edgeLabel;html=1;align=center;verticalAlign=middle;resizable=0;points=[];" vertex="1" connectable="0" parent="F4dPGGiIWAzUhIJDrd0Z-45">
          <mxGeometry x="0.4367" relative="1" as="geometry">
            <mxPoint as="offset" />
          </mxGeometry>
        </mxCell>
        <mxCell id="F4dPGGiIWAzUhIJDrd0Z-51" value="" style="endArrow=classic;html=1;rounded=0;exitX=0.381;exitY=0.999;exitDx=0;exitDy=0;exitPerimeter=0;entryX=0.25;entryY=0;entryDx=0;entryDy=0;strokeWidth=0.5;" edge="1" parent="F4dPGGiIWAzUhIJDrd0Z-46" source="LlWjDGCFj3o7en6xaWXe-8" target="F4dPGGiIWAzUhIJDrd0Z-43">
          <mxGeometry width="50" height="50" relative="1" as="geometry">
            <mxPoint x="90" y="140" as="sourcePoint" />
            <mxPoint x="140" y="90" as="targetPoint" />
            <Array as="points">
              <mxPoint x="80" y="100" />
              <mxPoint x="143" y="100" />
            </Array>
          </mxGeometry>
        </mxCell>
        <mxCell id="F4dPGGiIWAzUhIJDrd0Z-53" value="Tokens" style="edgeLabel;html=1;align=center;verticalAlign=middle;resizable=0;points=[];" vertex="1" connectable="0" parent="F4dPGGiIWAzUhIJDrd0Z-51">
          <mxGeometry x="0.84" relative="1" as="geometry">
            <mxPoint as="offset" />
          </mxGeometry>
        </mxCell>
        <mxCell id="F4dPGGiIWAzUhIJDrd0Z-49" style="edgeStyle=orthogonalEdgeStyle;rounded=0;orthogonalLoop=1;jettySize=auto;html=1;exitX=0.5;exitY=1;exitDx=0;exitDy=0;entryX=1;entryY=0.5;entryDx=0;entryDy=0;exitPerimeter=0;" edge="1" parent="1" source="F4dPGGiIWAzUhIJDrd0Z-21" target="F4dPGGiIWAzUhIJDrd0Z-43">
          <mxGeometry relative="1" as="geometry" />
        </mxCell>
        <mxCell id="F4dPGGiIWAzUhIJDrd0Z-57" style="edgeStyle=orthogonalEdgeStyle;rounded=0;orthogonalLoop=1;jettySize=auto;html=1;entryX=0.5;entryY=0;entryDx=0;entryDy=0;" edge="1" parent="1" source="F4dPGGiIWAzUhIJDrd0Z-43" target="F4dPGGiIWAzUhIJDrd0Z-37">
          <mxGeometry relative="1" as="geometry" />
        </mxCell>
        <mxCell id="F4dPGGiIWAzUhIJDrd0Z-58" value="Index of&lt;div&gt;Atom/Edge&lt;/div&gt;" style="edgeLabel;html=1;align=center;verticalAlign=middle;resizable=0;points=[];" vertex="1" connectable="0" parent="F4dPGGiIWAzUhIJDrd0Z-57">
          <mxGeometry x="-0.0182" y="1" relative="1" as="geometry">
            <mxPoint as="offset" />
          </mxGeometry>
        </mxCell>
      </root>
    </mxGraphModel>
  </diagram>
</mxfile>
